<?xml version="1.0" standalone="no"?><!DOCTYPE svg PUBLIC "-//W3C//DTD SVG 1.1//EN" "http://www.w3.org/Graphics/SVG/1.1/DTD/svg11.dtd"><svg t="1577004347127" class="icon" viewBox="0 0 1024 1024" version="1.1" xmlns="http://www.w3.org/2000/svg" p-id="8696" width="32" height="32" xmlns:xlink="http://www.w3.org/1999/xlink"><defs><style type="text/css"></style></defs><path d="M924.7 835h-88.2V466.1c0-173.6-146-315.6-324.5-315.6s-324.5 142-324.5 315.6V835H99.3c-16.9 0-30.6 13.7-30.6 30.6s13.7 30.6 30.6 30.6h825.4c16.9 0 30.6-13.7 30.6-30.6S941.6 835 924.7 835zM386.6 527.5l200-201.9c11.9-12 31.2-12.1 43.2-0.2 12 11.9 12.1 31.2 0.2 43.2L481.6 518.5h147.5c12.5 0 23.8 7.6 28.4 19.3 4.6 11.6 1.7 24.9-7.5 33.5L441 767.7c-5.9 5.5-13.4 8.3-20.9 8.3-8.1 0-16.3-3.2-22.3-9.6-11.6-12.3-11-31.6 1.4-43.2L552 579.7H408.3c-12.3 0-23.5-7.4-28.2-18.8-4.7-11.5-2.2-24.6 6.5-33.4z" p-id="8697" fill="#d81e06"></path></svg>