<?xml version="1.0" standalone="no"?><!DOCTYPE svg PUBLIC "-//W3C//DTD SVG 1.1//EN" "http://www.w3.org/Graphics/SVG/1.1/DTD/svg11.dtd"><svg t="1588148365077" class="icon" viewBox="0 0 1024 1024" version="1.1" xmlns="http://www.w3.org/2000/svg" p-id="6274" width="40" height="40" xmlns:xlink="http://www.w3.org/1999/xlink"><defs><style type="text/css"></style></defs><path d="M513.6 401.1H357.3v20.2h311.3v-20.1h-155z m0 0" fill="#434448" p-id="6275"></path><path d="M681.6 221.8l-10.7-11.6v-8s8 3.1 8-7v-50.7s-2.3-22.8-28.6-38.8C624.3 90 600.4 75 513.6 71.9h-1.4C425.4 75 401.6 90 375.6 105.8c-26.3 16-28.7 38.8-28.7 38.8v50.7c0 10.1 8.1 7 8.1 7l-0.1 8-10.7 11.6v98.3l11.3 14.1s-0.4 50.2-0.8 62.2c-0.4 11.9 18.7 9.8 18.7 9.8h278.9s19.1 2.1 18.7-9.8c-0.4-11.9-0.8-62.2-0.8-62.2l11.3-14.1 0.1-98.4z m0 0" fill="#d81e06" p-id="6276"></path><path d="M405 95.3s-34.2 20.5-35.1 55.6c-0.9 35.1 0 92.7 1.5 109.6 1.5 16.9 4.7 44.4 4.7 44.4s0.3-120.1 0.3-142.4c-0.1-27 2.5-38.3 28.6-67.2z m71.6 47.8s-40.7-1.4-51.5 16c-10.7 17.3-31.8 47.9-31.8 47.9s21.6-44.4 32-54c10.4-9.5 35.3-12 51.3-9.9z m0 0" fill="#FF8C5F" p-id="6277"></path><path d="M386.1 267.2s-2 129 0 132.1c2 3.1 4.8 6.2 6.1 6.6 1.4 0.4-8.4 1.6-9.9-14.8-1.6-16.4 0-144.2 0-144.2l3.8 20.3z m0 0" fill="#FF8C5F" p-id="6278"></path><path d="M650.8 101c-26-17-49.9-33.2-137-36.6h-1c-87.1 3.3-111 19.5-137 36.6-26.3 17.3-28.7 41.8-28.7 41.8v54.7c0 6.1 2.5 7.8 4.7 8h1.5c0.6-0.1 1.2-0.2 1.8-0.4V149.8s2.3-24.6 28.6-41.8c25.2-16.5 48.5-32.3 129.5-36.3 81 4 104.2 19.7 129.5 36.3 26.3 17.3 28.7 41.8 28.7 41.8v55.7-0.4s0.8 0.3 1.8 0.4h1.5c2.2-0.3 4.7-2 4.7-8.1v-54.7c0.1 0.2-2.3-24.4-28.6-41.7z m0 0" fill="#242323" p-id="6279"></path><path d="M620.9 95.3s34.2 20.5 35.1 55.6c0.9 35.1 0 92.7-1.5 109.6-1.5 16.9-4.7 44.4-4.7 44.4s-0.3-120.1-0.3-142.4c0.1-27-2.6-38.3-28.6-67.2z m-71.6 47.8s40.7-1.4 51.5 16c10.7 17.3 31.8 47.9 31.8 47.9s-21.6-44.4-32-54c-10.4-9.5-35.3-12-51.3-9.9z m0 0" fill="#FF8C5F" p-id="6280"></path><path d="M638.6 213.5c-6.9-10.9-18.3-17.3-37.5-24.5-31.9-8.4-78.9-8.9-87.5-9 0 0-53.7-0.3-88.9 9-19.2 7.2-30.6 13.7-37.5 24.5-6.9 10.9-10.4 17.2-7.3 48 3.1 30.8 7.3 68.6 7.3 68.6s7.9-4.3 23.5-5.4c14.8-1.1 94-3.5 102.2-3.8 8 0.4 87.5 2.7 102.2 3.8 15.6 1.2 23.5 5.4 23.5 5.4s4.2-37.8 7.3-68.6c3.2-30.9-0.3-37.1-7.3-48z m0 0" fill="#202016" p-id="6281"></path><path d="M664.7 274.3v100.2s-1.2 12-13.3 12c-12.1 0-3.5-40.4-4.3-54-0.8-13.6 5.8-56 5.8-56l11.8-2.2z m0 0" fill="#2E3C42" p-id="6282"></path><path d="M656.4 236.5l12.2 11.4s38 18.1 38.9 20.7c0.9 2.6 0 9.1 0 9.1l-34.2-9.9s-5.8 1.7-8.6 6.5c-2.8 4.9-11.8 3.1-11.8 3.1l3.5-40.9z m14.3 121h3.5v27.9h-3.5v-27.9z m0 0" fill="#201E1E" p-id="6283"></path><path d="M638.6 267.2s2 129 0 132.1c-2 3.1-4.8 6.2-6.1 6.6-1.4 0.4 8.4 1.6 9.9-14.8 1.6-16.4 0-144.2 0-144.2l-3.8 20.3z m0 0" fill="#FF8C5F" p-id="6284"></path><path d="M626.3 207.1c-7.1-5-25.4-12.7-53.8-15.6-13.5-2.3-58.5-3.1-58.5-3.1h-2.1s-44.9 0.8-58.5 3.1c-28.4 2.9-46.7 10.6-53.8 15.6-7.1 5-20.1 14.8-17.7 41.5 2.3 26.7 7.8 78 7.8 78s15-6.1 36.1-6.1c20 0 81.1-3.4 87.2-3.7 6 0.3 67.2 3.7 87.2 3.7 21 0 36 6.1 36 6.1s5.5-51.3 7.8-78c2.3-26.8-10.7-36.5-17.7-41.5z m0 0" fill="#3D4852" p-id="6285"></path><path d="M692.3 943.9v-84.1c0-7.3-5-5.6-5-5.6h-4.9l-169.3-0.2-170.3 0.2h-4.9s-5-1.6-5 5.6v84.1s-1.6 14.5 15.5 14.5h328.4c17.1 0.1 15.5-14.5 15.5-14.5z m0 0" fill="#221F20" p-id="6286"></path><path d="M678 419.6H348.7c-6.2 0-11.2 4.3-11.2 9.7v498.4c0 5.4 5 9.7 11.2 9.7H678c6.1 0 11.1-4.3 11.1-9.7V429.3c0-5.4-5-9.7-11.1-9.7z m0 0" fill="#2E3C42" p-id="6287"></path><path d="M509.2 427.1H353.3c-4.9 0-8.8 1.8-8.8 4v492.1c0 2.2 4 4 8.8 4h155.9V427.1zM328.3 627.8v107.4l9.1 14.1V615.8l-9.1 12z m0 0" fill="#C5E9EF" p-id="6288"></path><path d="M495.9 427.1h175.3c5.5 0 9.9 1.8 9.9 4v492.1c0 2.2-4.4 4-9.9 4H495.9V427.1z m203.5 200.7v107.4l-10.3 14.1V615.8l10.3 12z m0 0" fill="#C5E9EF" p-id="6289"></path><path d="M382 907.8c0 2.4-2 4.4-4.4 4.4-2.4 0-4.4-2-4.4-4.4V444.2c0-2.5 2-4.4 4.4-4.4 2.4 0 4.4 2 4.4 4.4v463.6z m22.4 0c0 2.4-2 4.4-4.4 4.4-2.4 0-4.4-2-4.4-4.4V444.2c0-2.5 2-4.4 4.4-4.4 2.4 0 4.4 2 4.4 4.4v463.6z m24.3 0c0 2.4-2 4.4-4.4 4.4-2.4 0-4.4-2-4.4-4.4V444.2c0-2.5 2-4.4 4.4-4.4 2.4 0 4.4 2 4.4 4.4v463.6z m22 0c0 2.4-2 4.4-4.4 4.4-2.4 0-4.4-2-4.4-4.4V444.2c0-2.5 2-4.4 4.4-4.4 2.4 0 4.4 2 4.4 4.4v463.6z m26.4 0c0 2.4-2 4.4-4.4 4.4-2.4 0-4.4-2-4.4-4.4V444.2c0-2.5 2-4.4 4.4-4.4 2.4 0 4.4 2 4.4 4.4v463.6z m23.7-0.1c0 2.5-2 4.4-4.4 4.4-2.4 0-4.4-2-4.4-4.4V444.1c0-2.5 2-4.4 4.4-4.4 2.4 0 4.4 2 4.4 4.4v463.6z m147.3 0.1c0 2.4 2 4.4 4.4 4.4 2.4 0 4.4-2 4.4-4.4V444.2c0-2.5-2-4.4-4.4-4.4-2.4 0-4.4 2-4.4 4.4v463.6z m-28.8 0c0 2.4 2 4.4 4.4 4.4 2.4 0 4.4-2 4.4-4.4V444.2c0-2.5-2-4.4-4.4-4.4-2.4 0-4.4 2-4.4 4.4v463.6z m-24.7 0c0 2.4 2 4.4 4.4 4.4 2.4 0 4.4-2 4.4-4.4V444.2c0-2.5-2-4.4-4.4-4.4-2.4 0-4.4 2-4.4 4.4v463.6z m-26.3 0c0 2.4 2 4.4 4.4 4.4 2.4 0 4.4-2 4.4-4.4V444.2c0-2.5-2-4.4-4.4-4.4-2.4 0-4.4 2-4.4 4.4v463.6z m-28.5-0.1c0 2.5 2 4.4 4.4 4.4 2.4 0 4.4-2 4.4-4.4V444.1c0-2.5-2-4.4-4.4-4.4-2.4 0-4.4 2-4.4 4.4v463.6z m-24.1 0c0 2.5 2 4.4 4.4 4.4 2.4 0 4.4-2 4.4-4.4V444.1c0-2.5-2-4.4-4.4-4.4-2.4 0-4.4 2-4.4 4.4v463.6z m0 0" fill="#566D7C" p-id="6290"></path><path d="M513.3 919.6h0.4v7.7h-0.4z" fill="#FFE38A" p-id="6291"></path><path d="M361.3 274.2v99.7s1.2 11.9 13.2 11.9c12.1 0 3.6-40.2 4.3-53.7 0.8-13.6-5.8-55.7-5.8-55.7l-11.7-2.2z m0 0" fill="#2E3C42" p-id="6292"></path><path d="M369.6 236.4l-12.2 11.4s-38 18.1-38.9 20.7c-0.9 2.6 0 9.1 0 9.1l34.2-9.9s5.8 1.7 8.6 6.5c2.8 4.9 11.8 3.1 11.8 3.1l-3.5-40.9z m-17.9 121.1h3.5v27.9h-3.5v-27.9z m0 0" fill="#201E1E" p-id="6293"></path><path d="M633.6 213.7c-2.4-2.5-5-4.7-7.9-6.6-7.1-5-25.4-12.7-53.8-15.6-13.5-2.3-58.5-3.1-58.5-3.1h-2.1s-44.9 0.8-58.5 3.1c-28.4 2.9-46.7 10.6-53.8 15.6-7.1 5-20.1 14.8-17.7 41.5 1.2 13.6 3.2 33.5 4.9 49.8 129.3-79.8 211.2-87.1 247.4-84.7z m0 0" fill="#303F43" p-id="6294"></path></svg>