<?xml version="1.0" standalone="no"?><!DOCTYPE svg PUBLIC "-//W3C//DTD SVG 1.1//EN" "http://www.w3.org/Graphics/SVG/1.1/DTD/svg11.dtd"><svg t="1588149080264" class="icon" viewBox="0 0 1024 1024" version="1.1" xmlns="http://www.w3.org/2000/svg" p-id="7091" width="32" height="32" xmlns:xlink="http://www.w3.org/1999/xlink"><defs><style type="text/css"></style></defs><path d="M859.88693333 147.00146667c0-24.02986667-22.9376-18.0224-30.03733333-10.92266667-13.65333333 14.7456-49.69813333 44.78293333-126.70293333 60.62080001-12.01493333 2.73066667-23.48373333 3.82293333-35.49866667 3.82293332-37.13706667 0-68.26666667-12.01493333-103.76533333-26.2144-40.96-15.83786667-87.38133333-33.86026667-150.7328-33.86026665-5.46133333 0-10.92266667 0-16.384 0.54613332-68.8128 3.2768-128.34133333 33.31413333-171.48586667 55.70560001a1751.30986667 1751.30986667 0 0 1-38.22933333 18.56853332l-3.82293334-9.28426666-0.54613333-0.54613333c-6.00746667-14.19946667-22.39146667-20.75306667-36.59093333-14.7456-6.5536 2.73066667-12.01493333 8.192-14.7456 15.29173333-2.73066667 6.5536-2.73066667 14.7456 0 21.2992l284.53546666 673.92853334c4.36906667 10.37653333 14.19946667 16.93013333 25.66826667 16.93013332 3.82293333 0 7.64586667-0.54613333 10.92266667-2.18453332 14.19946667-6.00746667 20.75306667-22.39146667 14.7456-36.59093334L370.00533333 648.898c12.56106667-20.75306667 40.41386667-55.7056 93.93493334-70.4512 16.93013333-4.36906667 34.4064-7.09973333 53.52106666-7.09973332 36.59093333 0 72.0896 8.192 109.7728 16.93013333 34.4064 7.64586667 69.35893333 15.83786667 103.76533334 15.83786666 51.88266667 0 91.7504-18.0224 126.1568-56.25173334 1.09226667-1.6384 2.18453333-5.46133333 2.73066666-8.73813333V147.00146667z" fill="#009688" p-id="7092"></path></svg>